<svg width="132" height="28" viewBox="0 0 132 28" fill="none" xmlns="http://www.w3.org/2000/svg">
<path d="M45.9012 23.1217C43.249 23.1217 41.2036 21.642 41.2036 19.255H43.5351C43.6304 20.3648 44.3931 21.2544 45.9012 21.2544C47.4266 21.2544 48.2933 20.4177 48.2933 19.2727C48.2933 16.0138 41.2469 18.1276 41.2469 13.16C41.2469 10.7907 43.1017 9.31104 45.8145 9.31104C48.354 9.31104 50.148 10.6674 50.3387 12.9839H47.9293C47.8513 12.0679 47.0712 11.2399 45.6932 11.1959C44.4278 11.1607 43.4571 11.7772 43.4571 13.0808C43.4571 16.1283 50.4861 14.2258 50.4861 19.1582C50.4861 21.1751 48.8566 23.1217 45.9012 23.1217Z" fill="#00143D"/>
<path d="M51.9246 17.8985C51.9246 17.5286 51.9419 17.1763 52.0026 16.8152H60.0456C59.8896 15.0448 58.6502 13.9791 57.0468 13.9791C55.7121 13.9791 54.9667 14.6396 54.5594 15.4764H52.2106C52.7999 13.6091 54.464 12.1206 57.0468 12.1206C60.063 12.1206 62.2991 14.2961 62.2991 17.6519C62.2991 21.0077 60.1583 23.1656 57.0468 23.1656C54.048 23.1568 51.9246 21.0429 51.9246 17.8985ZM60.0283 18.5943H54.204C54.2387 20.2414 55.5214 21.2895 57.1508 21.2895C58.6156 21.2983 59.803 20.2854 60.0283 18.5943Z" fill="#00143D"/>
<path d="M71.5471 17.0001C71.5471 15.036 70.4984 14.0319 68.9123 14.0319C67.3089 14.0319 66.2602 15.0448 66.2602 17.0001V22.9806H64.0847V12.288H66.2602V13.5123C66.9709 12.6403 68.1323 12.1118 69.3977 12.1118C71.8591 12.1118 73.7139 13.6884 73.7139 16.6743V22.9806H71.5558V17.0001H71.5471Z" fill="#00143D"/>
<path d="M75.3691 17.8985C75.3691 17.5286 75.3865 17.1763 75.4471 16.8152H83.4902C83.3342 15.0448 82.0948 13.9791 80.4914 13.9791C79.1567 13.9791 78.4113 14.6396 78.0039 15.4764H75.6552C76.2445 13.6091 77.9086 12.1206 80.4914 12.1206C83.5076 12.1206 85.7437 14.2961 85.7437 17.6519C85.7437 21.0077 83.6029 23.1656 80.4914 23.1656C77.4839 23.1568 75.3691 21.0429 75.3691 17.8985ZM83.4642 18.5943H77.6399C77.6746 20.2414 78.9573 21.2895 80.5867 21.2895C82.0515 21.2983 83.2389 20.2854 83.4642 18.5943Z" fill="#00143D"/>
<path d="M91.8801 12.1119C93.2582 12.1119 94.7056 12.7725 95.5116 13.7854V8.61523H97.7131V22.9808H95.5116V21.3689C94.8443 22.3378 93.5789 23.1569 91.8628 23.1569C89.0893 23.1569 86.8965 20.8845 86.8965 17.5816C86.8878 14.2875 89.0893 12.1119 91.8801 12.1119ZM92.3135 14.032C90.6927 14.032 89.124 15.2739 89.124 17.5816C89.124 19.8892 90.6927 21.228 92.3135 21.228C93.9602 21.228 95.503 19.9245 95.503 17.6168C95.503 15.3356 93.9602 14.032 92.3135 14.032Z" fill="#00143D"/>
<path d="M99.1433 9.4873H108.408V11.2929H104.872V22.9809H102.697V11.2929H99.1433V9.4873Z" fill="#00143D"/>
<path d="M112.941 12.1118C114.718 12.1118 115.94 12.9662 116.59 13.8381V12.288H118.792V22.9894H116.59V21.3952C115.923 22.3112 114.657 23.1656 112.907 23.1656C110.177 23.1656 107.975 20.8932 107.975 17.5903C107.975 14.2873 110.168 12.1118 112.941 12.1118ZM113.401 14.0319C111.78 14.0319 110.211 15.2738 110.211 17.5815C110.211 19.8891 111.78 21.2279 113.401 21.2279C115.047 21.2279 116.59 19.9243 116.59 17.6167C116.59 15.3355 115.039 14.0319 113.401 14.0319Z" fill="#00143D"/>
<path d="M127.051 12.1118C129.825 12.1118 132 14.2873 132 17.5903C132 20.8932 129.825 23.1656 127.051 23.1656C125.309 23.1656 124.07 22.276 123.385 21.4393V28.0804H121.21V12.288H123.385V13.8646C124.053 12.9662 125.335 12.1118 127.051 12.1118ZM126.575 14.0319C124.954 14.0319 123.385 15.3355 123.385 17.6255C123.385 19.9331 124.954 21.2367 126.575 21.2367C128.221 21.2367 129.781 19.8979 129.781 17.5903C129.79 15.2738 128.221 14.0319 126.575 14.0319Z" fill="#00143D"/>
<path d="M13.3475 25.4281L10.496 22.5303C10.3226 22.3542 10.0366 22.3542 9.86329 22.5303L9.09192 23.3142C8.91858 23.4904 8.91858 23.781 9.09192 23.9572L12.6454 27.5684C13.2088 28.1409 14.1275 28.1409 14.6909 27.5684L21.2952 20.8568C21.4685 20.6807 21.4685 20.39 21.2952 20.2139L20.5238 19.43C20.3505 19.2538 20.0645 19.2538 19.8911 19.43L13.9888 25.4281C13.8068 25.6042 13.5208 25.6042 13.3475 25.4281Z" fill="#02E3FB"/>
<path d="M30.4394 9.48745L21.4083 0.300911C21.3823 0.274488 21.3476 0.248065 21.3216 0.221641L21.3129 0.212833C21.2783 0.18641 21.2349 0.159987 21.2003 0.133563C21.1569 0.10714 21.1136 0.0895241 21.0702 0.0719085C21.0442 0.0631007 21.0269 0.0542929 21.0009 0.0454851C20.9749 0.0366773 20.9576 0.0366773 20.9316 0.0278695H20.9229C20.9056 0.0190617 20.8796 0.0190617 20.8622 0.0190617C20.8622 0.0190617 20.8622 0.0190617 20.8536 0.0190617C20.8276 0.0190617 20.8102 0.0102539 20.7842 0.0102539C20.7756 0.0102539 20.7756 0.0102539 20.7669 0.0102539C20.7409 0.0102539 20.7236 0.0102539 20.6976 0.0102539C18.3661 0.0102539 16.0347 0.0102539 13.7032 0.0102539C13.6772 0.0102539 13.6599 0.0102539 13.6339 0.0102539C13.6252 0.0102539 13.6252 0.0102539 13.6165 0.0102539C13.5905 0.0102539 13.5732 0.0102539 13.5472 0.0190617C13.5472 0.0190617 13.5472 0.0190617 13.5385 0.0190617C13.5212 0.0190617 13.4952 0.0278695 13.4779 0.0278695H13.4692C13.4432 0.0366773 13.4259 0.0366773 13.3999 0.0454851C13.3739 0.0542929 13.3565 0.0631007 13.3305 0.0719085C13.2872 0.0895241 13.2439 0.10714 13.2005 0.133563C13.1572 0.159987 13.1225 0.18641 13.0878 0.212833L13.0792 0.221641C13.0618 0.239257 13.0445 0.248065 13.0272 0.26568C13.0185 0.274488 13.0012 0.292104 12.9925 0.300911L0.425207 13.0722C-0.138155 13.6447 -0.138155 14.5784 0.425207 15.1509L5.99815 20.8143C6.1715 20.9904 6.45751 20.9904 6.63085 20.8143L7.40223 20.0304C7.57557 19.8542 7.57557 19.5636 7.40223 19.3874L2.53131 14.4374C2.35797 14.2613 2.35797 13.9706 2.53131 13.7945L13.3825 2.7671C13.5559 2.59094 13.8419 2.59094 14.0152 2.7671L17.1961 5.99956L20.3769 2.7671C20.5502 2.59094 20.8362 2.59094 21.0096 2.7671L28.3246 10.2009C28.498 10.377 28.498 10.6677 28.3246 10.8438L22.9683 16.2871C22.795 16.4632 22.795 16.7539 22.9683 16.93L23.7397 17.7139C23.9131 17.8901 24.1991 17.8901 24.3724 17.7139L30.4307 11.5573C31.0028 10.9848 31.0028 10.06 30.4394 9.48745ZM17.2047 3.13702L16.104 2.02724H18.2968L17.2047 3.13702Z" fill="#034EFE"/>
</svg>
