<svg width="438" height="438" viewBox="0 0 438 438" fill="none" xmlns="http://www.w3.org/2000/svg">
<path d="M425.225 26.426H283.532V161.695H425.225V26.426Z" fill="#F0F4FF" stroke="#001C5B" stroke-width="0.75" stroke-miterlimit="10"/>
<path d="M425.225 91.615H354.342V26.426H351.568V91.615H283.532V95.776H351.568V161.914H354.342V95.776H425.225V91.615Z" fill="#F0F4FF" stroke="#001C5B" stroke-width="0.75" stroke-miterlimit="10"/>
<path d="M306.965 58.327C306.965 51.538 310.25 45.479 315.36 41.756C313.973 41.464 312.586 41.245 311.053 41.245C300.76 41.245 292.438 49.567 292.438 59.86C292.438 70.153 300.76 78.475 311.053 78.475C313.754 78.475 316.309 77.891 318.572 76.869C311.71 73.584 306.965 66.503 306.965 58.327Z" fill="#F0F4FF" stroke="#001C5B" stroke-width="0.75" stroke-miterlimit="10"/>
<path d="M173.01 201.115H165.783V327.259H173.01V201.115Z" fill="#001C5B"/>
<path d="M279.882 196.735H272.655V322.879H279.882V196.735Z" fill="#001C5B"/>
<path d="M24.017 241.63H16.79V400.259H24.017V241.63Z" fill="#001C5B"/>
<path d="M8.76002 243.966C54.239 246.448 99.718 249.003 145.124 251.485L287.328 197.83C287.474 196.151 287.62 194.472 287.766 192.866C249.295 192.136 210.897 191.333 172.426 190.603C117.822 206.59 63.145 222.577 8.54102 238.637C8.61402 240.389 8.68702 242.214 8.76002 243.966Z" fill="#F0F4FF" stroke="#001C5B" stroke-width="0.75" stroke-miterlimit="10"/>
<path d="M9.49023 238.491L145.124 246.302L287.328 192.647L172.426 185.347L9.49023 238.491Z" fill="#F0F4FF" stroke="#001C5B" stroke-width="0.75" stroke-miterlimit="10"/>
<path d="M74.752 224.183L153.884 230.023L209.437 205.276L145.854 198.341L74.752 224.183Z" fill="#F0F4FF" stroke="#001C5B" stroke-width="0.75" stroke-miterlimit="10"/>
<path d="M62.4878 156.877C62.4878 158.118 74.7518 224.11 74.7518 224.11L145.854 198.268L136.218 141.255L62.4878 156.877Z" fill="#F0F4FF" stroke="#001C5B" stroke-width="0.75" stroke-miterlimit="10"/>
<path d="M66.5029 159.359L77.7449 220.095L142.423 196.151L134.32 143.664L66.5029 159.359Z" fill="#F0F4FF" stroke="#001C5B" stroke-width="0.75" stroke-miterlimit="10"/>
<path d="M83.6577 222.65C84.1687 222.504 138.846 227.03 138.846 227.03L189.8 204.838L146.73 199.728L83.6577 222.65Z" fill="#F0F4FF" stroke="#001C5B" stroke-width="0.75" stroke-miterlimit="10"/>
<path d="M90.0088 220.095L145.854 223.964" stroke="#001C5B" stroke-width="0.75" stroke-miterlimit="10"/>
<path d="M100.156 216.664L153.154 220.825" stroke="#001C5B" stroke-width="0.75" stroke-miterlimit="10"/>
<path d="M130.889 226.373L183.011 203.67" stroke="#001C5B" stroke-width="0.75" stroke-miterlimit="10"/>
<path d="M132.714 204.838L177.828 210.094" stroke="#001C5B" stroke-width="0.75" stroke-miterlimit="10"/>
<path d="M140.379 202.064L184.69 207.101" stroke="#001C5B" stroke-width="0.75" stroke-miterlimit="10"/>
<path d="M93.1479 223.307L152.789 200.531" stroke="#001C5B" stroke-width="0.75" stroke-miterlimit="10"/>
<path d="M104.463 224.256L159.797 201.115" stroke="#001C5B" stroke-width="0.75" stroke-miterlimit="10"/>
<path d="M117.968 225.351L168.119 202.283" stroke="#001C5B" stroke-width="0.75" stroke-miterlimit="10"/>
<path d="M111.982 212.357L154.687 216.007" stroke="#001C5B" stroke-width="0.75" stroke-miterlimit="10"/>
<path d="M123.954 208.05L164.761 211.627" stroke="#001C5B" stroke-width="0.75" stroke-miterlimit="10"/>
<path d="M94.8268 159.432C100.813 158.118 106.799 156.585 112.712 154.833C114.026 154.395 113.515 152.278 112.128 152.716C106.215 154.468 100.302 156.001 94.2428 157.315C92.8558 157.607 93.4398 159.724 94.8268 159.432Z" fill="#034EFE"/>
<path d="M74.8976 174.032C89.7896 170.528 104.536 166.148 118.917 161.038C119.939 160.673 119.501 159.067 118.479 159.432C104.025 164.615 89.3516 168.922 74.4596 172.426C73.4376 172.718 73.8756 174.324 74.8976 174.032Z" fill="#001C5B"/>
<path d="M76.5768 181.551C94.3888 175.93 112.347 170.893 130.451 166.294C131.473 166.002 131.035 164.469 130.013 164.688C111.909 169.214 93.9508 174.324 76.1388 179.945C75.1168 180.237 75.5548 181.843 76.5768 181.551Z" fill="#001C5B"/>
<path d="M104.463 180.164C113.734 177.39 123.005 174.543 132.276 171.623C133.298 171.331 132.86 169.725 131.838 170.017C122.567 172.864 113.296 175.711 104.025 178.558C103.003 178.85 103.441 180.456 104.463 180.164Z" fill="#001C5B"/>
<path d="M79.7887 194.107C91.8337 190.384 103.879 186.661 115.924 183.011C116.946 182.719 116.508 181.113 115.486 181.405C103.441 185.128 91.3957 188.851 79.3507 192.501C78.3287 192.793 78.7667 194.399 79.7887 194.107Z" fill="#001C5B"/>
<path d="M96.5788 197.538C107.675 193.523 118.917 189.946 130.232 186.88C131.254 186.588 130.816 184.982 129.794 185.274C118.406 188.413 107.237 191.99 96.1408 195.932C95.1188 196.297 95.5568 197.903 96.5788 197.538Z" fill="#001C5B"/>
<path d="M50.4428 235.571H36.4998C34.8208 235.571 33.3608 234.257 33.1418 232.578L29.7108 201.115C29.4918 199.144 31.0248 197.392 33.0688 197.392H54.3118C56.3558 197.392 57.8888 199.144 57.5968 201.115L53.6548 232.578C53.5088 234.33 52.1218 235.571 50.4428 235.571Z" fill="#001C5B"/>
<path d="M43.7269 202.94C51.4678 202.94 57.7429 201.306 57.7429 199.29C57.7429 197.274 51.4678 195.64 43.7269 195.64C35.9861 195.64 29.7109 197.274 29.7109 199.29C29.7109 201.306 35.9861 202.94 43.7269 202.94Z" fill="#F0F4FF" stroke="#001C5B" stroke-width="0.75" stroke-miterlimit="10"/>
<path d="M40.5878 149.65C36.1348 156.731 36.2808 164.396 38.8358 172.134C40.2958 176.514 42.2668 180.821 42.5588 185.493C42.8508 190.238 41.8288 195.202 41.2448 199.874C41.0988 201.261 43.2888 201.261 43.4348 199.874C44.0188 195.567 44.8948 191.187 44.8218 186.807C44.7488 183.084 43.7998 179.507 42.5588 176.003C39.5658 167.243 37.1568 159.213 42.4858 150.745C43.2158 149.577 41.3178 148.482 40.5878 149.65Z" fill="#034EFE"/>
<path d="M28.5428 161.111C28.0318 166.586 31.9008 169.944 35.2588 173.667C39.7848 178.631 42.2668 184.836 42.6318 191.552C42.7048 192.939 44.8948 192.939 44.8218 191.552C44.5298 186.442 43.1428 181.478 40.5148 177.098C37.4488 171.988 30.1488 167.681 30.7328 161.111C30.8788 159.724 28.6888 159.724 28.5428 161.111Z" fill="#034EFE"/>
<path d="M39.7852 165.71C42.0482 162.644 44.6762 159.651 46.4282 156.293C48.1072 152.935 49.0562 149.358 50.9542 146.073C51.6842 144.832 49.7862 143.737 49.0562 144.978C47.1582 148.19 46.2092 151.84 44.5302 155.198C42.7782 158.629 40.1502 161.622 37.8872 164.615C37.0112 165.71 38.9092 166.805 39.7852 165.71Z" fill="#034EFE"/>
<path d="M31.4629 174.835C33.2879 175.419 37.3029 176.368 37.8869 175.127C38.6899 173.521 33.7259 167.9 27.5939 167.243C25.6229 167.024 23.8709 167.389 22.6299 167.754C23.7249 169.433 26.4989 173.229 31.4629 174.835Z" fill="#034EFE"/>
<path d="M29.93 164.688C29.2 163.739 26.937 160.454 27.229 156.001C27.74 148.628 34.821 145.051 35.113 144.905C35.624 146.73 36.865 151.986 34.602 157.753C33.288 161.111 31.317 163.447 29.93 164.688Z" fill="#034EFE"/>
<path d="M40.5147 151.986C40.1497 150.599 39.7117 147.971 40.4417 144.905C41.7557 139.722 45.5517 137.021 46.5737 136.291C46.9387 137.532 47.6687 140.452 46.7197 143.883C45.4057 148.92 41.3907 151.402 40.5147 151.986Z" fill="#034EFE"/>
<path d="M42.267 178.704C42.048 177.609 41.464 173.74 43.581 169.725C46.063 165.053 50.37 163.52 51.319 163.228C51.465 164.615 51.392 166.294 50.954 168.192C49.421 174.616 43.727 177.974 42.267 178.704Z" fill="#034EFE"/>
<path d="M40.8799 162.425C42.4129 159.943 45.2599 156.074 49.9319 152.862C52.8519 150.818 55.6259 149.577 57.8159 148.847C57.5969 150.453 56.9399 154.03 54.0929 157.242C49.1289 162.79 41.8289 162.425 40.8799 162.425Z" fill="#034EFE"/>
<path d="M168.119 151.986C168.119 166.148 168.119 180.383 168.119 194.545C179.653 195.786 191.26 197.027 202.794 198.341C210.386 195.348 217.905 192.428 225.497 189.435C225.862 175.857 226.154 162.352 226.519 148.774C216.81 147.679 207.028 146.584 197.319 145.562C187.61 147.679 177.901 149.796 168.119 151.986Z" fill="#F0F4FF"/>
<path d="M168.119 151.986V194.545L202.794 198.341L225.57 189.435L226.519 148.774L197.319 145.562L168.119 151.986Z" fill="#F0F4FF" stroke="#001C5B" stroke-width="0.75" stroke-miterlimit="10"/>
<path d="M168.119 151.986L201.188 155.855" stroke="#001C5B" stroke-width="0.75" stroke-miterlimit="10"/>
<path d="M225.497 149.577L201.188 155.855" stroke="#001C5B" stroke-width="0.75" stroke-miterlimit="10"/>
<path d="M202.137 197.465L202.283 155.563" stroke="#001C5B" stroke-width="0.75" stroke-miterlimit="10"/>
<path d="M186.515 151.621L194.91 152.716" stroke="#001C5B" stroke-width="0.75" stroke-miterlimit="10"/>
<path d="M188.851 149.431L206.225 151.621" stroke="#001C5B" stroke-width="0.75" stroke-miterlimit="10"/>
<path d="M199.217 148.117L213.379 149.285" stroke="#001C5B" stroke-width="0.75" stroke-miterlimit="10"/>
<path d="M168.119 155.125L202.21 158.921" stroke="#001C5B" stroke-width="0.75" stroke-miterlimit="10"/>
<path d="M168.119 160.089L190.676 162.644" stroke="#001C5B" stroke-width="0.75" stroke-miterlimit="10"/>
<path d="M172.354 165.491L202.21 168.484" stroke="#001C5B" stroke-width="0.75" stroke-miterlimit="10"/>
<path d="M168.119 169.287L202.21 171.915" stroke="#001C5B" stroke-width="0.75" stroke-miterlimit="10"/>
<path d="M168.119 174.105L199.217 176.514" stroke="#001C5B" stroke-width="0.75" stroke-miterlimit="10"/>
<path d="M168.119 179.215L199.217 181.113" stroke="#001C5B" stroke-width="0.75" stroke-miterlimit="10"/>
<path d="M175.492 183.522L201.772 185.347" stroke="#001C5B" stroke-width="0.75" stroke-miterlimit="10"/>
<path d="M168.119 186.88L201.042 189.435" stroke="#001C5B" stroke-width="0.75" stroke-miterlimit="10"/>
<path d="M173.01 190.968L202.21 193.742" stroke="#001C5B" stroke-width="0.75" stroke-miterlimit="10"/>
<path d="M202.794 161.403L226.519 154.468" stroke="#001C5B" stroke-width="0.75" stroke-miterlimit="10"/>
<path d="M206.298 156.658L226.446 151.621" stroke="#001C5B" stroke-width="0.75" stroke-miterlimit="10"/>
<path d="M202.794 170.163L226.227 162.644" stroke="#001C5B" stroke-width="0.75" stroke-miterlimit="10"/>
<path d="M208.488 163.739L221.92 159.724" stroke="#001C5B" stroke-width="0.75" stroke-miterlimit="10"/>
<path d="M202.21 177.828L226.008 169.652" stroke="#001C5B" stroke-width="0.75" stroke-miterlimit="10"/>
<path d="M203.962 173.74L213.379 170.601" stroke="#001C5B" stroke-width="0.75" stroke-miterlimit="10"/>
<path d="M202.137 186.88L220.752 180.164" stroke="#001C5B" stroke-width="0.75" stroke-miterlimit="10"/>
<path d="M206.298 181.186L225.862 175.346" stroke="#001C5B" stroke-width="0.75" stroke-miterlimit="10"/>
<path d="M202.648 193.742L225.643 185.347" stroke="#001C5B" stroke-width="0.75" stroke-miterlimit="10"/>
<path d="M257.471 387.338V343.246H266.669L273.385 322.952H230.826L236.447 343.246H248.638V387.411C234.622 388.36 224.037 393.105 224.037 398.872C224.037 405.296 237.323 410.479 253.821 410.479C270.319 410.479 283.605 405.296 283.605 398.872C283.532 392.886 272.144 387.995 257.471 387.338Z" fill="#F0F4FF" stroke="#001C5B" stroke-width="0.75" stroke-miterlimit="10"/>
<path d="M181.04 310.177C181.186 313.17 181.332 316.236 181.478 319.229C181.697 323.609 185.201 327.113 189.654 327.259C212.43 328.062 235.206 328.865 258.055 329.595C259.515 329.668 260.902 329.303 262.143 328.719C281.415 318.937 300.76 309.155 320.032 299.373C324.412 297.183 326.018 291.635 323.463 287.474C321.857 284.846 320.324 282.291 318.718 279.663C316.893 276.597 313.243 275.064 309.739 275.794C269.078 284.335 228.417 292.949 187.756 301.49C183.668 302.366 180.821 306.016 181.04 310.177Z" fill="#034EFE" stroke="#034EFE" stroke-miterlimit="10"/>
<path d="M135.78 43.8C135.415 49.275 135.123 54.969 134.977 60.809C134.685 73.73 135.05 85.848 135.853 97.09C138.773 97.747 141.62 98.331 144.54 98.988C147.168 97.455 149.796 95.995 152.351 94.462C152.789 95.776 153.154 97.09 153.592 98.331C156.074 98.404 159.505 98.404 163.52 97.747C165.345 97.455 170.601 96.652 178.193 93.513C183.376 91.396 191.26 87.454 199.947 80.519C198.925 79.643 197.538 78.475 196.151 76.942C195.129 75.847 192.355 72.708 190.019 67.744C187.902 63.218 187.245 59.641 186.15 53.29C185.493 49.421 184.763 44.165 184.471 37.887C181.478 38.325 178.339 38.69 175.273 39.055C164.25 40.296 153.665 40.953 143.664 41.099C140.963 42.048 138.335 42.924 135.78 43.8Z" fill="#F0F4FF"/>
<path d="M143.591 41.245C143.445 44.019 143.372 46.793 143.226 49.567C157.096 48.326 170.966 47.085 184.909 45.844C184.763 43.216 184.617 40.661 184.471 38.033C170.82 39.055 157.169 40.15 143.591 41.245Z" fill="#034EFE"/>
<path d="M135.488 43.8001C134.247 61.5391 134.247 79.3511 135.488 97.1631C135.488 97.5281 136.072 97.5281 136.072 97.1631C134.831 79.4241 134.831 61.6121 136.072 43.8001C136.072 43.4351 135.488 43.4351 135.488 43.8001Z" fill="#001C5B"/>
<path d="M136.948 43.435C138.481 43.143 140.014 42.778 141.474 42.194C141.839 42.048 141.693 41.537 141.328 41.683C139.868 42.194 138.335 42.632 136.802 42.924C136.437 42.997 136.583 43.508 136.948 43.435Z" fill="#001C5B"/>
<path d="M143.591 41.464C156.512 40.661 169.433 39.785 182.427 38.982C182.792 38.982 182.792 38.398 182.427 38.398C169.506 39.201 156.585 40.077 143.591 40.88C143.226 40.953 143.226 41.537 143.591 41.464Z" fill="#001C5B"/>
<path d="M142.642 43.216C143.08 61.685 146.584 79.935 153.008 97.236C153.154 97.528 153.665 97.455 153.519 97.09C147.095 79.789 143.591 61.612 143.153 43.216C143.153 42.851 142.642 42.851 142.642 43.216Z" fill="#001C5B"/>
<path d="M184.033 43.143C186.515 55.699 187.099 70.299 197.83 78.986C198.122 79.205 198.487 78.84 198.195 78.621C187.464 69.934 186.953 55.48 184.544 42.997C184.544 42.705 183.96 42.851 184.033 43.143Z" fill="#001C5B"/>
<path d="M154.687 98.623C171.258 99.134 185.858 90.958 198.998 81.76C199.29 81.541 198.998 81.103 198.706 81.322C185.566 90.447 171.112 98.623 154.687 98.112C154.322 98.039 154.322 98.623 154.687 98.623Z" fill="#001C5B"/>
<path d="M135.926 97.382C138.7 98.404 141.547 98.988 144.467 99.28C144.832 99.28 144.832 98.769 144.467 98.696C141.547 98.404 138.773 97.747 136.072 96.798C135.707 96.798 135.561 97.309 135.926 97.382Z" fill="#001C5B"/>
<path d="M142.934 49.567C142.496 65.554 143.007 81.541 144.467 97.455C144.467 97.82 145.051 97.82 145.051 97.455C143.591 81.541 143.08 65.554 143.518 49.567C143.445 49.202 142.934 49.202 142.934 49.567Z" fill="#001C5B"/>
<path d="M145.27 99.3531C147.168 98.2581 149.066 97.0901 151.037 95.9951C151.329 95.8491 151.037 95.3381 150.745 95.5571C148.847 96.6521 146.949 97.8201 144.978 98.9151C144.686 99.0611 144.978 99.4991 145.27 99.3531Z" fill="#001C5B"/>
<path d="M138.7 48.983C137.97 63.437 138.116 77.891 139.065 92.345C139.065 92.71 139.649 92.71 139.649 92.345C138.7 77.891 138.554 63.437 139.284 48.983C139.284 48.618 138.7 48.618 138.7 48.983Z" fill="#001C5B"/>
<path d="M140.89 71.686C140.525 79.862 140.817 88.111 141.766 96.214C141.839 96.579 142.35 96.579 142.35 96.214C141.401 88.038 141.182 79.862 141.474 71.686C141.474 71.321 140.963 71.321 140.89 71.686Z" fill="#001C5B"/>
<path d="M154.541 52.998C157.826 66.211 162.936 78.84 169.871 90.593C170.017 90.885 170.528 90.593 170.309 90.301C163.374 78.621 158.264 66.065 155.052 52.852C154.979 52.487 154.468 52.633 154.541 52.998Z" fill="#001C5B"/>
<path d="M167.754 50.37C172.353 60.663 178.119 70.2261 184.981 79.1321C185.2 79.4241 185.565 78.9861 185.346 78.7671C178.484 69.9341 172.79 60.371 168.191 50.151C168.045 49.786 167.608 50.078 167.754 50.37Z" fill="#001C5B"/>
<path d="M149.431 68.474C161.038 66.211 172.134 62.123 182.427 56.356C182.719 56.21 182.427 55.699 182.135 55.918C171.842 61.685 160.819 65.7 149.212 67.963C148.92 68.036 149.066 68.547 149.431 68.474Z" fill="#001C5B"/>
<path d="M150.964 82.49C157.388 79.862 163.885 77.307 170.309 74.679C175.492 72.562 180.748 70.518 185.347 67.233C185.639 67.014 185.347 66.576 185.055 66.795C180.091 70.372 174.397 72.489 168.849 74.752C162.863 77.161 156.877 79.643 150.818 82.052C150.526 82.125 150.672 82.636 150.964 82.49Z" fill="#001C5B"/>
<path d="M147.387 59.203C149.869 60.663 152.497 61.685 155.344 62.342C155.709 62.415 155.855 61.904 155.49 61.831C152.716 61.174 150.161 60.152 147.679 58.692C147.314 58.546 147.022 58.984 147.387 59.203Z" fill="#001C5B"/>
<path d="M153.373 56.356C151.548 58.473 150.015 60.809 148.774 63.364C148.628 63.656 149.066 63.948 149.212 63.656C150.453 61.174 151.913 58.838 153.738 56.794C154.03 56.502 153.592 56.064 153.373 56.356Z" fill="#001C5B"/>
<path d="M161.111 55.553C163.228 56.429 165.272 57.305 167.389 58.181C167.681 58.327 167.827 57.816 167.535 57.67C165.418 56.794 163.374 55.918 161.257 55.042C160.892 54.896 160.746 55.407 161.111 55.553Z" fill="#001C5B"/>
<path d="M166.075 52.706C164.177 54.677 162.644 56.94 161.549 59.422C161.403 59.714 161.914 60.006 161.987 59.714C163.082 57.232 164.542 55.042 166.44 53.071C166.732 52.852 166.367 52.487 166.075 52.706Z" fill="#001C5B"/>
<path d="M175.054 52.268C176.66 52.852 178.266 53.436 179.945 54.02C180.31 54.166 180.383 53.582 180.091 53.509C178.485 52.925 176.879 52.341 175.2 51.757C174.835 51.611 174.689 52.122 175.054 52.268Z" fill="#001C5B"/>
<path d="M179.069 48.983C176.587 51.903 174.324 55.042 172.134 58.254C171.915 58.546 172.426 58.838 172.572 58.546C174.689 55.407 176.952 52.341 179.361 49.421C179.726 49.129 179.288 48.764 179.069 48.983Z" fill="#001C5B"/>
<path d="M150.453 72.489C153.081 73.146 155.49 74.168 157.826 75.482C158.118 75.628 158.41 75.19 158.118 75.044C155.709 73.73 153.227 72.708 150.599 71.978C150.307 71.832 150.161 72.416 150.453 72.489Z" fill="#001C5B"/>
<path d="M156.95 69.642C154.906 71.759 153.373 74.314 152.351 77.088C152.205 77.453 152.789 77.526 152.862 77.234C153.811 74.533 155.344 72.124 157.315 70.08C157.607 69.788 157.242 69.423 156.95 69.642Z" fill="#001C5B"/>
<path d="M183.011 79.132C179.799 75.774 184.69 67.817 189.07 70.153C193.304 72.416 190.968 80.957 186.15 80.811C180.456 80.665 180.967 71.978 185.493 70.445C188.121 69.496 190.895 73.365 190.53 75.701C190.092 78.402 187.537 79.059 185.274 78.3291C184.909 78.1831 184.763 78.767 185.128 78.84C186.807 79.424 188.924 79.351 190.238 77.891C191.625 76.285 191.041 73.876 190.092 72.197C187.391 67.598 182.208 70.372 181.551 74.825C180.894 78.986 185.274 83.512 189.143 80.227C192.355 77.526 193.523 70.153 188.194 69.131C183.449 68.182 179.434 76.139 182.646 79.57C182.865 79.789 183.23 79.351 183.011 79.132Z" fill="#034EFE"/>
<path d="M194.326 366.752C194.326 366.752 191.552 366.898 188.705 367.555C180.748 369.453 167.389 377.045 168.484 379.965C169.068 381.644 174.032 380.549 195.129 379.819C199.874 379.673 203.743 379.6 206.371 379.527C205.349 375.439 204.4 371.424 203.378 367.336C201.188 366.971 198.049 366.533 194.326 366.752Z" fill="#034EFE" stroke="#034EFE" stroke-miterlimit="10"/>
<path d="M192.062 368.431C191.186 367.847 190.383 367.19 189.653 366.387C189.288 365.949 187.682 363.978 187.901 363.321C188.266 362.956 188.704 362.591 189.069 362.226C189.288 362.518 189.507 362.81 189.726 363.029C190.018 363.394 190.237 363.832 190.456 364.27C190.967 365.365 191.332 366.606 191.697 367.774C191.77 367.92 191.916 367.993 192.062 367.993C193.011 367.628 193.96 367.555 194.909 368.139C195.493 368.431 197.026 369.964 195.785 370.256C195.42 370.329 194.106 369.526 193.741 369.38C193.084 369.088 192.427 368.796 191.697 368.504C191.405 368.358 191.113 368.869 191.405 368.942C192.938 369.599 194.836 370.84 196.588 371.059C196.661 371.059 196.807 370.986 196.807 370.913C197.829 369.453 195.274 367.409 194.106 367.19C193.668 367.117 193.303 367.19 192.865 367.117C191.843 367.044 191.916 366.606 191.551 365.657C191.113 364.416 190.602 363.248 189.799 362.226C188.85 361.058 187.171 361.058 187.244 362.883C187.317 365.292 189.945 367.701 191.77 368.869C192.135 369.088 192.354 368.577 192.062 368.431Z" fill="#F0F4FF"/>
<path d="M179.653 370.913C180.675 371.059 181.478 371.643 181.916 372.519C182.062 372.811 182.573 372.592 182.354 372.227C181.843 371.132 180.821 370.475 179.58 370.329C179.288 370.256 179.361 370.84 179.653 370.913Z" fill="#F0F4FF"/>
<path d="M182.938 369.453C183.96 369.526 184.836 370.11 185.274 370.986C185.42 371.278 185.931 370.986 185.712 370.694C185.128 369.599 184.106 368.942 182.865 368.869C182.573 368.869 182.573 369.453 182.938 369.453Z" fill="#F0F4FF"/>
<path d="M186.077 368.212C187.099 368.504 187.829 369.234 188.194 370.183C188.267 370.548 188.851 370.402 188.705 370.037C188.34 368.869 187.391 367.993 186.223 367.628C185.858 367.628 185.712 368.139 186.077 368.212Z" fill="#F0F4FF"/>
<path d="M178.777 379.381C186.661 378.797 194.618 378.432 202.575 378.286C202.94 378.286 202.94 377.702 202.575 377.702C194.618 377.848 186.734 378.286 178.777 378.797C178.412 378.87 178.412 379.381 178.777 379.381Z" fill="#F0F4FF"/>
<path d="M189.435 302.804C191.333 312.586 193.377 322.587 195.567 332.661C198.195 344.706 200.823 356.532 203.597 368.139C202.794 368.431 201.845 368.796 200.823 369.015C197.903 369.745 195.275 369.818 193.231 369.672C189.581 361.715 186.734 355.437 184.982 351.714C178.266 337.26 173.594 321.93 167.754 307.111C166.586 304.118 163.739 296.891 166.878 292.876C168.046 291.343 170.455 289.81 172.499 288.569C174.981 286.963 177.025 286.014 177.974 285.649C186.369 281.926 193.815 280.101 193.815 280.101C223.818 272.801 220.898 272.582 231.483 270.757C237.761 269.662 241.265 269.297 246.813 267.253C254.186 264.552 254.843 262.8 260.464 261.34C264.625 260.318 274.115 257.909 279.882 263.311C286.014 269.005 283.751 279.298 283.532 280.247C282.729 281.78 281.561 283.751 279.882 285.941C278.714 287.401 276.159 290.686 272.071 293.679C270.684 294.701 267.253 296.964 261.048 298.789C254.113 300.833 248.565 300.906 242.798 300.979C227.833 301.052 218.416 301.125 214.693 301.198C208.634 301.198 200.02 301.563 189.435 302.804Z" fill="#F0F4FF"/>
<path d="M283.239 280.028C279.443 287.036 273.603 293.314 266.303 296.672C258.055 300.395 247.689 300.468 238.71 300.76C222.212 301.271 205.714 300.103 189.289 302.585C188.924 302.658 189.07 303.169 189.435 303.096C208.05 300.249 226.884 302.22 245.645 300.979C253.383 300.468 261.996 299.884 268.858 295.942C275.209 292.292 280.246 286.671 283.677 280.32C283.896 280.028 283.458 279.736 283.239 280.028Z" fill="#001C5B"/>
<path d="M189.435 303.315C193.231 325.069 197.903 346.75 203.305 368.139C203.378 368.504 203.889 368.358 203.816 367.993C198.341 346.531 193.742 324.923 189.946 303.169C189.873 302.877 189.362 303.023 189.435 303.315Z" fill="#001C5B"/>
<path d="M192.646 368.139C183.594 348.429 175.2 328.427 167.535 308.133C167.389 307.841 166.878 307.914 167.024 308.279C174.689 328.573 183.083 348.648 192.208 368.358C192.354 368.723 192.792 368.504 192.646 368.139Z" fill="#001C5B"/>
<path d="M166.878 293.022C172.28 288.058 178.85 285.211 185.712 282.875C192.282 280.685 198.852 278.568 205.495 276.743C219.73 272.728 234.403 270.83 248.638 266.961C249.003 266.888 248.857 266.304 248.492 266.45C233.381 270.611 217.759 272.582 202.648 277.035C190.384 280.612 176.076 283.751 166.44 292.657C166.221 292.876 166.659 293.241 166.878 293.022Z" fill="#001C5B"/>
<path d="M193.158 369.891C196.297 370.84 199.582 370.256 202.21 368.431C202.502 368.212 202.21 367.774 201.918 367.993C199.363 369.818 196.297 370.329 193.231 369.453C193.012 369.307 192.866 369.818 193.158 369.891Z" fill="#001C5B"/>
<path d="M162.644 376.68C162.644 376.68 159.87 376.826 157.023 377.483C149.066 379.381 135.707 386.973 136.802 389.893C137.386 391.572 142.35 390.477 163.447 389.747C168.192 389.601 172.061 389.528 174.689 389.455C173.667 385.367 172.718 381.352 171.696 377.264C169.506 376.899 166.367 376.461 162.644 376.68Z" fill="#034EFE" stroke="#034EFE" stroke-miterlimit="10"/>
<path d="M165.637 372.519C167.024 372.519 167.024 370.329 165.637 370.329C164.25 370.329 164.25 372.519 165.637 372.519Z" fill="#F0F4FF"/>
<path d="M160.454 378.359C159.578 377.775 158.775 377.118 158.045 376.315C157.68 375.877 156.074 373.906 156.293 373.249C156.658 372.884 157.096 372.519 157.461 372.154C157.68 372.446 157.899 372.738 158.118 372.957C158.41 373.322 158.629 373.76 158.848 374.198C159.359 375.293 159.724 376.534 160.089 377.702C160.162 377.848 160.308 377.921 160.454 377.921C161.403 377.556 162.352 377.483 163.301 378.067C163.885 378.359 165.418 379.892 164.177 380.184C163.812 380.257 162.498 379.454 162.133 379.308C161.476 379.016 160.819 378.724 160.089 378.432C159.797 378.286 159.505 378.797 159.797 378.87C161.33 379.527 163.228 380.768 164.98 380.987C165.053 380.987 165.199 380.914 165.199 380.841C166.221 379.381 163.666 377.337 162.498 377.118C162.06 377.045 161.695 377.118 161.257 377.045C160.235 376.972 160.308 376.534 159.943 375.585C159.505 374.344 158.994 373.176 158.191 372.154C157.242 370.986 155.563 370.986 155.636 372.811C155.709 375.22 158.337 377.629 160.162 378.797C160.454 379.016 160.746 378.505 160.454 378.359Z" fill="#F0F4FF"/>
<path d="M148.044 380.768C149.066 380.914 149.869 381.498 150.307 382.374C150.453 382.666 150.964 382.447 150.745 382.082C150.234 380.987 149.212 380.33 147.971 380.184C147.679 380.184 147.679 380.768 148.044 380.768Z" fill="#F0F4FF"/>
<path d="M151.256 379.381C152.278 379.454 153.154 380.038 153.592 380.914C153.738 381.206 154.249 380.914 154.03 380.622C153.446 379.527 152.424 378.87 151.183 378.797C150.891 378.797 150.891 379.381 151.256 379.381Z" fill="#F0F4FF"/>
<path d="M154.395 378.14C155.417 378.432 156.147 379.162 156.512 380.111C156.585 380.476 157.169 380.33 157.023 379.965C156.658 378.797 155.709 377.921 154.541 377.556C154.249 377.556 154.103 378.067 154.395 378.14Z" fill="#F0F4FF"/>
<path d="M147.095 389.309C154.979 388.725 162.936 388.36 170.893 388.214C171.258 388.214 171.258 387.63 170.893 387.63C162.936 387.776 155.052 388.214 147.095 388.725C146.73 388.725 146.73 389.309 147.095 389.309Z" fill="#F0F4FF"/>
<path d="M265.501 294.774C263.603 296.088 260.902 297.84 257.398 299.373C253.018 301.344 248.857 302.366 243.966 303.023C239.294 303.68 235.352 303.899 223.672 303.826C209.072 303.753 205.495 303.315 196.881 303.753C191.406 304.045 187.026 304.483 184.179 304.848C181.843 315.652 179.58 326.821 177.536 338.428C175.2 351.787 173.229 364.781 171.55 377.264C170.455 377.337 169.141 377.41 167.754 377.337C165.71 377.264 163.958 376.972 162.571 376.607C160.819 365.146 158.41 347.845 157.023 329.449C156.731 325.434 156.512 318.718 156.147 305.286C156.147 305.286 156.001 299.811 156.804 288.715C157.242 282.437 157.753 279.371 159.943 276.305C161.987 273.458 164.542 271.998 167.097 270.611C172.937 267.399 178.193 266.596 180.164 266.304C192.428 264.333 189.289 262.946 210.678 258.493C226.665 255.135 232.286 254.478 234.257 254.332C243.893 253.602 248.784 253.164 252.58 254.916C267.107 261.486 265.647 291.854 265.501 294.774Z" fill="#F0F4FF"/>
<path d="M230.826 254.624C218.708 256.449 206.663 258.931 194.837 261.924C188.778 263.457 182.792 265.209 176.806 267.034C172.353 268.421 166.951 269.589 163.082 272.436C155.855 277.838 156.366 289.226 156.074 297.183C155.563 309.739 156.147 322.295 157.242 334.851C158.483 348.867 160.381 362.737 162.352 376.68C162.425 377.045 162.936 376.899 162.863 376.534C158.702 347.115 154.249 316.893 157.242 287.109C158.045 279.371 160.527 273.312 168.192 270.392C174.689 267.91 181.478 266.012 188.194 264.187C202.21 260.245 216.518 257.252 230.899 255.062C231.337 255.135 231.191 254.551 230.826 254.624Z" fill="#001C5B"/>
<path d="M260.683 298.278C248.638 303.534 235.498 303.826 222.65 303.607C209.875 303.315 197.173 303.169 184.471 304.483C184.106 304.483 184.106 305.067 184.471 305.067C198.049 303.68 211.554 304.045 225.205 304.191C237.396 304.337 249.733 303.68 261.048 298.716C261.267 298.643 260.975 298.132 260.683 298.278Z" fill="#001C5B"/>
<path d="M183.96 305.943C178.777 329.522 174.543 353.393 171.404 377.337C171.331 377.702 171.915 377.702 171.988 377.337C175.127 353.393 179.288 329.668 184.471 306.089C184.544 305.724 184.033 305.578 183.96 305.943Z" fill="#001C5B"/>
<path d="M163.228 376.315C165.491 377.775 168.192 378.067 170.674 377.045C170.966 376.899 170.82 376.388 170.528 376.534C168.192 377.483 165.637 377.264 163.52 375.877C163.228 375.658 162.936 376.169 163.228 376.315Z" fill="#001C5B"/>
<path d="M253.748 161.914C256.887 160.527 259.515 159.505 261.267 158.848C268.932 156.001 281.634 151.402 297.329 151.621C298.789 151.621 300.03 151.694 300.687 151.767C301.563 153.154 302.731 155.125 303.899 157.534C305.724 161.403 306.892 165.053 307.987 170.09C309.155 175.127 310.542 181.478 311.053 190.238C311.053 190.238 311.783 203.232 309.301 217.759C304.483 245.499 288.569 271.998 284.408 278.787C282.437 279.225 279.955 279.59 277.035 279.809C275.064 279.955 271.122 280.174 266.158 279.59C262.946 279.225 258.493 278.714 253.237 276.597C250.609 275.575 245.061 273.312 239.659 267.983C234.768 263.165 232.213 258.055 230.899 254.77C232.213 252.799 233.965 250.098 235.936 246.667C239.148 240.9 241.192 236.082 243.09 231.41C245.353 226.008 246.448 223.307 247.251 220.533C248.857 215.058 248.857 212.138 249.806 201.115C249.879 200.312 250.536 193.45 251.923 179.799C252.58 172.207 253.31 166.002 253.748 161.914Z" fill="#F0F4FF"/>
<path d="M255.281 161.622C256.522 160.965 258.274 160.162 260.318 159.213C262.435 158.337 267.837 156.074 274.772 154.322C283.605 152.132 291.562 151.621 297.329 151.621C298.57 151.913 299.811 152.132 301.052 152.424C301.855 153.592 302.877 155.344 303.899 157.534C305.432 160.746 306.308 163.52 307.111 166.586C308.352 171.331 309.593 176.076 310.469 182.865C310.834 185.712 311.929 195.494 310.615 208.634C310.323 211.846 309.228 221.482 305.286 234.549C302.074 245.28 296.015 261.121 284.408 278.86C282.656 279.225 280.101 279.663 277.035 279.882C272.874 280.174 264.698 280.758 255.208 277.4C251.704 276.159 245.499 273.896 239.659 268.129C234.695 263.238 232.14 258.128 230.899 254.916C234.184 248.565 236.958 243.09 238.929 239.002C241.995 232.797 243.82 228.782 245.791 223.745C247.835 218.416 248.711 215.277 249.295 212.065C249.806 208.999 249.879 206.882 250.098 203.67C250.39 197.976 250.901 192.209 251.193 186.515C251.558 180.675 252.507 172.426 255.281 161.622Z" fill="#F0F4FF"/>
<path d="M255.427 161.841C268.494 155.271 282.729 151.913 297.329 151.913C297.694 151.913 297.694 151.329 297.329 151.329C282.656 151.329 268.275 154.76 255.135 161.33C254.843 161.549 255.062 162.06 255.427 161.841Z" fill="#001C5B"/>
<path d="M302.804 155.636C311.053 176.003 312.805 197.684 308.717 219.292C304.775 240.17 295.869 259.807 284.919 277.911C284.773 278.203 285.211 278.495 285.357 278.203C296.526 259.661 305.578 239.586 309.447 218.124C313.243 196.881 311.418 175.492 303.242 155.49C303.169 155.198 302.658 155.344 302.804 155.636Z" fill="#001C5B"/>
<path d="M252.799 170.09C249.806 184.471 250.828 199.509 248.492 213.963C247.324 221.263 244.112 227.76 241.046 234.476C237.98 241.192 234.841 247.835 231.556 254.405C231.41 254.697 231.848 254.989 231.994 254.697C235.206 248.054 238.345 241.411 241.484 234.768C244.404 228.49 247.47 222.285 248.711 215.496C251.485 200.604 250.171 185.128 253.237 170.309C253.383 169.871 252.872 169.725 252.799 170.09Z" fill="#001C5B"/>
<path d="M231.556 256.157C239.367 277.254 263.53 282.072 283.532 279.663C283.897 279.59 283.897 279.079 283.532 279.079C263.822 281.488 239.805 276.889 232.067 256.011C231.994 255.646 231.41 255.792 231.556 256.157Z" fill="#001C5B"/>
<path d="M181.04 205.422C180.821 204.765 180.529 203.743 180.237 202.502C179.288 198.852 178.777 196.954 178.558 195.786C178.412 194.764 178.12 193.012 176.952 191.333C176.66 190.968 176.441 190.676 176.149 190.676C175.419 190.749 174.908 192.72 174.616 194.472C174.105 193.596 173.302 192.355 172.134 191.041C170.966 189.727 170.236 188.924 168.995 188.267C168.411 187.975 166.659 187.026 164.469 187.391C162.133 187.756 159.359 189.581 159.14 192.136C159.067 193.085 159.359 193.815 159.578 194.399C160.527 194.472 161.987 194.691 163.447 195.567C164.104 195.932 164.98 196.589 166.805 198.925C168.265 200.823 168.703 201.626 170.09 203.67C171.258 205.349 172.426 207.101 173.886 208.707C175.054 210.021 176.952 211.846 179.799 213.525C180.31 213.014 180.967 212.211 181.332 211.043C182.281 208.415 181.332 206.006 181.04 205.422Z" fill="#F0F4FF"/>
<path d="M254.77 161.549C252.945 161.987 250.974 164.177 247.105 168.484C243.236 172.791 240.608 176.368 239.002 178.558C230.096 190.676 228.709 192.866 224.986 197.246C221.847 200.969 219.073 203.816 217.394 205.568C213.817 205.787 210.094 206.006 206.298 206.079C197.246 206.225 188.778 205.933 180.967 205.203C180.456 205.86 179.945 206.736 179.507 207.904C178.631 210.386 178.996 212.503 179.215 213.598C181.697 215.131 185.055 217.175 189.289 219.146C191.99 220.46 198.633 223.453 207.758 225.862C214.839 227.687 219.365 228.125 220.679 228.198C225.716 228.636 228.709 228.271 230.534 227.906C231.41 227.76 233.746 227.322 236.52 226.227C243.455 223.599 247.981 219.292 253.456 213.963C255.135 212.284 257.106 210.459 259.442 207.685C262.873 203.597 267.691 197.903 270.538 189.581C272.144 184.763 273.093 182.208 272.655 178.631C271.56 168.922 261.486 160.016 254.77 161.549Z" fill="#F0F4FF"/>
<path d="M253.529 161.695C239.44 174.251 231.118 191.844 217.54 204.911C217.321 205.13 217.686 205.568 217.905 205.276C231.483 192.209 239.732 174.689 253.894 162.06C254.186 161.841 253.821 161.476 253.529 161.695Z" fill="#001C5B"/>
<path d="M180.968 205.495C193.086 206.517 205.277 206.663 217.395 205.86C217.76 205.86 217.76 205.276 217.395 205.276C205.277 206.079 193.086 205.933 180.968 204.911C180.603 204.911 180.603 205.495 180.968 205.495Z" fill="#001C5B"/>
<path d="M180.821 205.203C178.996 207.539 178.266 210.313 178.85 213.233C178.923 213.598 179.434 213.452 179.361 213.087C178.85 210.386 179.507 207.758 181.186 205.568C181.405 205.349 181.04 204.984 180.821 205.203Z" fill="#001C5B"/>
<path d="M179.069 213.817C187.318 218.781 195.859 222.869 205.13 225.424C213.525 227.76 223.818 230.315 232.432 227.687C240.097 225.351 247.324 220.022 253.237 214.62C259.734 208.707 264.99 201.626 269.005 193.815C269.151 193.523 268.713 193.231 268.567 193.523C264.844 200.75 260.026 207.393 254.113 213.014C248.054 218.781 240.462 224.548 232.359 227.103C223.672 229.804 213.233 227.103 204.765 224.694C195.786 222.066 187.391 218.124 179.434 213.306C179.069 213.16 178.777 213.671 179.069 213.817Z" fill="#001C5B"/>
<path d="M181.04 204.765C180.164 201.334 179.434 197.83 178.485 194.399C178.047 192.866 177.463 190.53 175.93 189.727C175.784 189.654 175.711 189.654 175.565 189.8C174.689 190.53 174.616 191.698 174.543 192.72C174.543 193.085 175.054 193.085 175.127 192.72C176.514 191.187 177.39 191.406 177.609 193.304C177.682 193.596 177.755 193.888 177.901 194.18C178.266 195.275 178.485 196.443 178.777 197.611C179.361 200.093 180.018 202.502 180.602 204.984C180.602 205.276 181.113 205.13 181.04 204.765Z" fill="#001C5B"/>
<path d="M178.704 212.43C173.594 208.78 171.185 204.035 167.754 198.998C165.856 196.224 163.301 194.253 159.87 194.472C159.505 194.472 159.505 195.056 159.87 195.056C166.221 194.618 168.192 201.48 171.112 205.641C173.083 208.488 175.638 210.897 178.412 212.941C178.704 213.087 178.996 212.649 178.704 212.43Z" fill="#001C5B"/>
<path d="M159.213 192.647C162.06 192.72 164.542 193.815 166.513 195.786C166.732 196.005 167.17 195.64 166.878 195.421C164.834 193.304 162.133 192.136 159.14 192.063C158.848 192.136 158.848 192.647 159.213 192.647Z" fill="#001C5B"/>
<path d="M161.33 190.968C163.958 191.333 166.294 192.647 167.973 194.691C168.192 194.983 168.557 194.545 168.338 194.326C166.586 192.136 164.104 190.822 161.33 190.457C160.965 190.384 160.965 190.968 161.33 190.968Z" fill="#001C5B"/>
<path d="M163.374 188.851C165.856 189.727 167.973 191.26 169.433 193.45C169.652 193.742 170.09 193.45 169.871 193.158C168.265 190.895 166.075 189.216 163.447 188.34C163.155 188.194 163.082 188.778 163.374 188.851Z" fill="#001C5B"/>
<path d="M165.71 187.099C167.973 187.902 171.696 189.289 172.134 191.99C172.207 192.355 172.718 192.209 172.645 191.844C172.207 188.851 168.338 187.391 165.856 186.515C165.491 186.515 165.345 187.026 165.71 187.099Z" fill="#001C5B"/>
<path d="M254.916 136.218C254.332 137.094 253.529 138.554 253.091 140.525C252.872 141.474 252.215 144.832 253.894 148.482C254.478 149.796 255.573 151.986 258.128 153.3C260.61 154.541 263.092 154.103 263.895 153.884C264.479 154.979 265.063 156.074 265.647 157.096C266.961 156.804 268.932 156.22 270.903 154.833C272.363 153.884 274.48 152.424 275.648 149.869C277.181 146.438 276.086 142.934 274.772 138.773C273.969 136.218 273.604 134.977 272.801 134.101C269.881 131.035 262.654 132.203 254.916 136.218Z" fill="#F0F4FF"/>
<path d="M255.354 141.182C255.636 141.182 255.865 140.822 255.865 140.379C255.865 139.935 255.636 139.576 255.354 139.576C255.072 139.576 254.843 139.935 254.843 140.379C254.843 140.822 255.072 141.182 255.354 141.182Z" fill="#001C5B"/>
<path d="M260.026 136.364C259.223 136.437 257.982 136.437 256.595 136.072C255.5 135.78 253.018 135.123 251.704 132.86C251.412 132.349 250.317 130.451 251.12 128.626C251.996 126.728 254.332 126.29 255.208 126.144C257.69 125.706 259.734 126.801 260.391 127.239C261.048 125.268 262.07 123.954 262.654 123.224C266.231 119.282 271.487 119.574 272.509 119.647C273.823 119.72 275.283 119.866 276.305 120.888C276.524 121.107 277.035 121.618 277.765 124.465C278.641 127.75 278.349 128.188 279.006 128.918C279.809 129.794 280.612 129.502 283.824 130.232C285.941 130.743 287.547 131.108 289.226 132.13C291.489 133.517 292.803 135.269 293.314 136.072C294.847 138.408 295.212 140.671 295.285 141.547C295.65 144.686 294.628 147.095 294.117 148.19C292.657 151.475 290.394 153.3 289.445 154.103C285.868 156.95 282.145 157.461 280.612 157.68C279.006 157.899 275.21 158.41 271.049 156.658C263.238 153.373 260.902 145.051 260.537 143.372C259.807 140.452 259.88 137.97 260.026 136.364Z" fill="#001C5B"/>
<path d="M255.062 135.488C252.069 139.941 251.631 146.292 254.843 150.891C257.544 154.687 262.873 155.271 266.815 153.227C267.107 153.081 266.815 152.57 266.523 152.789C262.362 154.979 256.96 153.884 254.697 149.577C252.434 145.197 252.799 139.941 255.573 135.926C255.792 135.488 255.281 135.196 255.062 135.488Z" fill="#001C5B"/>
<path d="M263.749 153.957C263.968 154.395 264.26 154.833 264.479 155.271C264.625 155.563 265.136 155.271 264.917 154.979C264.698 154.541 264.406 154.103 264.187 153.665C264.041 153.373 263.53 153.665 263.749 153.957Z" fill="#001C5B"/>
<path d="M255.208 135.196C252.799 134.247 249.587 130.816 251.777 128.188C253.894 125.633 257.398 126.29 260.026 127.312C260.318 127.458 260.464 126.947 260.172 126.801C258.201 125.998 256.303 125.414 254.259 126.071C252.872 126.509 251.193 127.458 250.682 128.918C249.587 131.838 252.507 134.831 254.989 135.78C255.427 135.853 255.573 135.342 255.208 135.196Z" fill="#001C5B"/>
<path d="M260.61 135.196C259.369 130.305 260.391 124.538 264.99 121.691C267.18 120.377 270.173 119.647 272.728 119.939C276.524 120.304 277.181 123.37 277.765 126.509C278.203 128.772 279.225 129.721 281.415 130.232C286.379 131.327 291.124 132.203 293.679 137.24C299.373 148.336 286.014 159.286 275.356 157.096C265.501 155.052 258.858 145.124 260.464 135.415C260.537 135.05 260.026 134.904 259.953 135.269C258.639 143.372 262.216 150.672 269.151 154.979C276.743 159.651 286.89 158.118 292.73 151.11C297.402 145.489 296.307 136.802 290.321 132.641C288.569 131.4 286.525 130.67 284.481 130.232C282.583 129.867 281.342 130.013 279.809 128.553C278.057 126.947 278.495 125.706 278.057 123.589C277.546 121.034 275.794 119.793 273.312 119.501C263.749 118.333 257.982 126.655 260.172 135.415C260.172 135.634 260.756 135.488 260.61 135.196Z" fill="#001C5B"/>
<path d="M254.697 135.634C256.376 136.437 258.128 136.729 260.026 136.583C260.391 136.583 260.391 135.999 260.026 135.999C258.274 136.145 256.595 135.853 254.989 135.123C254.697 135.05 254.405 135.488 254.697 135.634Z" fill="#001C5B"/>
<path d="M145.197 405.515H137.97C137.97 354.05 137.97 302.585 137.97 251.12C140.379 251.266 142.788 251.412 145.124 251.558C145.124 302.877 145.124 354.196 145.197 405.515Z" fill="#001C5B"/>
<path d="M261.632 188.632C258.566 226.373 254.333 294.19 253.457 308.571C253.311 310.396 253.53 312.221 254.041 314.046C255.501 319.448 258.858 330.836 260.172 329.741C261.559 328.573 313.243 306.965 333.537 298.497C338.501 296.453 342.005 291.635 342.735 286.014L357.627 164.907C358.43 158.264 355.218 151.84 349.597 148.92C346.75 147.387 343.465 146.949 340.326 147.606L287.182 158.556C273.239 161.33 262.8 173.667 261.632 188.632Z" fill="#034EFE" stroke="#034EFE" stroke-miterlimit="10"/>
</svg>
