<svg width="181" height="38" viewBox="0 0 181 38" fill="none" xmlns="http://www.w3.org/2000/svg">
<path d="M62.9399 31.3797C59.3033 31.3797 56.4985 29.3715 56.4985 26.1322H59.6954C59.8262 27.6383 60.872 28.8456 62.9399 28.8456C65.0316 28.8456 66.22 27.71 66.22 26.1561C66.22 21.7333 56.558 24.6021 56.558 17.8604C56.558 14.6449 59.1012 12.6367 62.821 12.6367C66.3032 12.6367 68.7633 14.4775 69.0247 17.6213H65.7209C65.6139 16.3781 64.5443 15.2545 62.6547 15.1948C60.9195 15.1469 59.5885 15.9837 59.5885 17.7528C59.5885 21.8887 69.2268 19.3067 69.2268 26.0007C69.2268 28.738 66.9925 31.3797 62.9399 31.3797Z" fill="#FDFDFD"/>
<path d="M71.1995 24.2912C71.1995 23.7891 71.2232 23.311 71.3064 22.8209H82.3352C82.1213 20.4182 80.4218 18.9719 78.2232 18.9719C76.393 18.9719 75.3709 19.8684 74.8123 21.004H71.5917C72.3998 18.4698 74.6816 16.4497 78.2232 16.4497C82.359 16.4497 85.4251 19.4022 85.4251 23.9565C85.4251 28.5107 82.4897 31.4393 78.2232 31.4393C74.1112 31.4274 71.1995 28.5585 71.1995 24.2912ZM82.3114 25.2355H74.3251C74.3726 27.4708 76.1315 28.8932 78.3658 28.8932C80.3743 28.9052 82.0024 27.5305 82.3114 25.2355Z" fill="#FDFDFD"/>
<path d="M98.106 23.0722C98.106 20.4065 96.668 19.0438 94.4932 19.0438C92.2945 19.0438 90.8565 20.4185 90.8565 23.0722V31.1885H87.8735V16.6771H90.8565V18.3386C91.8311 17.1552 93.4236 16.438 95.1587 16.438C98.5339 16.438 101.077 18.5777 101.077 22.6299V31.1885H98.1179V23.0722H98.106Z" fill="#FDFDFD"/>
<path d="M103.347 24.2912C103.347 23.7891 103.371 23.311 103.454 22.8209H114.483C114.269 20.4182 112.569 18.9719 110.371 18.9719C108.54 18.9719 107.518 19.8684 106.96 21.004H103.739C104.547 18.4698 106.829 16.4497 110.371 16.4497C114.506 16.4497 117.573 19.4022 117.573 23.9565C117.573 28.5107 114.637 31.4393 110.371 31.4393C106.247 31.4274 103.347 28.5585 103.347 24.2912ZM114.447 25.2355H106.461C106.508 27.4708 108.267 28.8932 110.501 28.8932C112.51 28.9052 114.138 27.5305 114.447 25.2355Z" fill="#FDFDFD"/>
<path d="M125.987 16.4379C127.877 16.4379 129.861 17.3344 130.967 18.7091V11.6924H133.985V31.1885H130.967V29.001C130.051 30.3158 128.316 31.4275 125.963 31.4275C122.16 31.4275 119.153 28.3435 119.153 23.861C119.141 19.3904 122.16 16.4379 125.987 16.4379ZM126.581 19.0438C124.359 19.0438 122.208 20.7292 122.208 23.861C122.208 26.9928 124.359 28.8097 126.581 28.8097C128.839 28.8097 130.955 27.0406 130.955 23.9088C130.955 20.8129 128.839 19.0438 126.581 19.0438Z" fill="#FDFDFD"/>
<path d="M135.946 12.8757H148.65V15.3262H143.802V31.1884H140.819V15.3262H135.946V12.8757Z" fill="#FDFDFD"/>
<path d="M154.866 16.438C157.302 16.438 158.978 17.5975 159.87 18.7809V16.6771H162.888V31.2005H159.87V29.0369C158.954 30.2801 157.219 31.4396 154.819 31.4396C151.075 31.4396 148.056 28.3556 148.056 23.873C148.056 19.3905 151.063 16.438 154.866 16.438ZM155.496 19.0438C153.274 19.0438 151.123 20.7293 151.123 23.8611C151.123 26.9929 153.274 28.8098 155.496 28.8098C157.754 28.8098 159.87 27.0407 159.87 23.9089C159.87 20.8129 157.742 19.0438 155.496 19.0438Z" fill="#FDFDFD"/>
<path d="M174.214 16.438C178.017 16.438 181 19.3905 181 23.873C181 28.3556 178.017 31.4396 174.214 31.4396C171.825 31.4396 170.126 30.2323 169.187 29.0967V38.1096H166.204V16.6771H169.187V18.8167C170.102 17.5975 171.861 16.438 174.214 16.438ZM173.56 19.0438C171.338 19.0438 169.187 20.813 169.187 23.9208C169.187 27.0526 171.338 28.8218 173.56 28.8218C175.818 28.8218 177.958 27.0048 177.958 23.873C177.969 20.7293 175.818 19.0438 173.56 19.0438Z" fill="#FDFDFD"/>
<path d="M18.3021 34.5098L14.3921 30.5771C14.1544 30.338 13.7622 30.338 13.5246 30.5771L12.4668 31.641C12.2292 31.88 12.2292 32.2745 12.4668 32.5136L17.3395 37.4145C18.1119 38.1914 19.3717 38.1914 20.1442 37.4145L29.2001 28.3059C29.4378 28.0669 29.4378 27.6724 29.2001 27.4333L28.1424 26.3695C27.9047 26.1304 27.5125 26.1304 27.2748 26.3695L19.1815 34.5098C18.932 34.7488 18.5398 34.7488 18.3021 34.5098Z" fill="#02E3FB"/>
<path d="M41.7384 12.8744L29.3548 0.406915C29.3191 0.371055 29.2716 0.335194 29.2359 0.299334L29.224 0.28738C29.1765 0.25152 29.1171 0.21566 29.0695 0.179799C29.0101 0.143939 28.9507 0.120032 28.8913 0.0961253C28.8556 0.0841718 28.8319 0.0722184 28.7962 0.0602649C28.7605 0.0483115 28.7368 0.0483115 28.7011 0.0363581H28.6892C28.6655 0.0244046 28.6298 0.0244046 28.606 0.0244046C28.606 0.0244046 28.606 0.0244046 28.5942 0.0244046C28.5585 0.0244046 28.5347 0.0124512 28.4991 0.0124512C28.4872 0.0124512 28.4872 0.0124512 28.4753 0.0124512C28.4397 0.0124512 28.4159 0.0124512 28.3802 0.0124512C25.1833 0.0124512 21.9864 0.0124512 18.7895 0.0124512C18.7538 0.0124512 18.7301 0.0124512 18.6944 0.0124512C18.6825 0.0124512 18.6825 0.0124512 18.6707 0.0124512C18.635 0.0124512 18.6112 0.0124512 18.5756 0.0244046C18.5756 0.0244046 18.5756 0.0244046 18.5637 0.0244046C18.5399 0.0244046 18.5043 0.0363581 18.4805 0.0363581H18.4686C18.433 0.0483115 18.4092 0.0483115 18.3735 0.0602649C18.3379 0.0722184 18.3141 0.0841718 18.2785 0.0961253C18.219 0.120032 18.1596 0.143939 18.1002 0.179799C18.0408 0.21566 17.9932 0.25152 17.9457 0.28738L17.9338 0.299334C17.9101 0.323241 17.8863 0.335194 17.8625 0.359101C17.8506 0.371055 17.8269 0.394961 17.815 0.406915L0.58254 17.7394C-0.189948 18.5164 -0.189948 19.7834 0.58254 20.5604L8.22423 28.2465C8.46192 28.4856 8.85411 28.4856 9.0918 28.2465L10.1495 27.1826C10.3872 26.9436 10.3872 26.5491 10.1495 26.31L3.47046 19.5922C3.23277 19.3531 3.23277 18.9587 3.47046 18.7196L18.3498 3.75388C18.5875 3.51481 18.9797 3.51481 19.2173 3.75388L23.5789 8.14079L27.9405 3.75388C28.1782 3.51481 28.5704 3.51481 28.8081 3.75388L38.8385 13.8426C39.0762 14.0817 39.0762 14.4761 38.8385 14.7152L31.494 22.1024C31.2563 22.3415 31.2563 22.7359 31.494 22.975L32.5517 24.0389C32.7894 24.2779 33.1816 24.2779 33.4192 24.0389L41.7265 15.6834C42.5108 14.9064 42.5108 13.6513 41.7384 12.8744ZM23.5908 4.25592L22.0815 2.74979H25.0883L23.5908 4.25592Z" fill="white"/>
</svg>
